<svg xmlns="http://www.w3.org/2000/svg" viewBox="0 0 128 64" width="128" height="64">
    <path fill="#54b247" d="M91.15,15.83H80l12.29,28.3h11.19Z"></path>
    <path fill="#68cb5b" d="M84.6,30.91l6.55-15.08H80L73.41,30.91Z"></path>
    <path fill="#63bf60" d="M91.15,15.83H80l5.59,12.89Z"></path>
    <path class="logo-t-fill" fill="white"
        d="M65.52,44.13v-11a5.45,5.45,0,0,0-10.9,0v11H49v-11a11,11,0,0,1,22.06,0v11Zm-25,0V42.69a11,11,0,1,1,5.59-9.6v11Zm-10.89-11a5.45,5.45,0,1,0,10.89,0h0a5.45,5.45,0,0,0-10.89,0Z">
    </path>
</svg>